<svg xmlns="http://www.w3.org/2000/svg" width="28" height="28" viewBox="0 0 28 28">
  <path id="adjust-circle" d="M23.058,9.01A10.873,10.873,0,1,0,9.01,23.058,10.873,10.873,0,1,0,23.058,9.01ZM20.81,11.258a8.6,8.6,0,0,1,.155,1.6,8.316,8.316,0,0,1-.225,1.882l-3.428-3.4a8.316,8.316,0,0,1,1.882-.225,8.6,8.6,0,0,1,1.6.155Zm-1.32,6.181a8.429,8.429,0,0,1-2.051,2.051l-4.86-4.86a8.429,8.429,0,0,1,2.051-2.051ZM8.252,19.49A8.077,8.077,0,1,1,19.49,8.252h-.351A10.9,10.9,0,0,0,8.308,19.195c0,.112.014.239.014.351Zm2.95,1.25a8.6,8.6,0,0,1-.155-1.6,8.316,8.316,0,0,1,.225-1.882l3.414,3.414a8.316,8.316,0,0,1-1.882.225,8.6,8.6,0,0,1-1.531-.1Zm7.993,6.532a8.105,8.105,0,0,1-6.673-3.526h.351A10.9,10.9,0,0,0,23.76,12.873v-.351a8.077,8.077,0,0,1-4.565,14.75Z" transform="translate(-2.034 -2.034)" fill="#94a1b2"/>
</svg>
