<?xml version="1.0" encoding="utf-8"?>
<!-- Generator: Adobe Illustrator 22.0.1, SVG Export Plug-In . SVG Version: 6.00 Build 0)  -->
<svg version="1.1" id="Layer_1" xmlns="http://www.w3.org/2000/svg" xmlns:xlink="http://www.w3.org/1999/xlink" x="0px" y="0px"
	 viewBox="0 0 24 24" style="enable-background:new 0 0 24 24;" xml:space="preserve">
<style type="text/css">
	.st0{fill:#FFFFFF;}
</style>
<path class="st0" d="M3,8h18c0.6,0,1-0.4,1-1s-0.4-1-1-1H3C2.4,6,2,6.4,2,7S2.4,8,3,8z M21,16H3c-0.6,0-1,0.4-1,1s0.4,1,1,1h18
	c0.6,0,1-0.4,1-1S21.6,16,21,16z M21,11H3c-0.6,0-1,0.4-1,1s0.4,1,1,1h18c0.6,0,1-0.4,1-1S21.6,11,21,11z"/>
</svg>
