<svg xmlns="http://www.w3.org/2000/svg" width="36.906" height="29.515" viewBox="0 0 36.906 29.515">
  <path id="eye" d="M38.749,18.02C35.023,9.368,28.013,4,20.45,4S5.877,9.368,2.151,18.02a1.845,1.845,0,0,0,0,1.476c3.726,8.652,10.736,14.02,18.3,14.02s14.573-5.368,18.3-14.02A1.845,1.845,0,0,0,38.749,18.02ZM20.45,29.825C14.6,29.825,9.068,25.6,5.877,18.757,9.068,11.914,14.6,7.689,20.45,7.689s11.382,4.224,14.573,11.068C31.831,25.6,26.3,29.825,20.45,29.825Zm0-18.447a7.379,7.379,0,1,0,7.379,7.379A7.379,7.379,0,0,0,20.45,11.379Zm0,11.068a3.689,3.689,0,1,1,3.689-3.689A3.689,3.689,0,0,1,20.45,22.447Z" transform="translate(-1.997 -4)" fill="#fff"/>
</svg>
