<svg xmlns="http://www.w3.org/2000/svg" width="28" height="28" viewBox="0 0 28 28">
  <path id="flask" d="M30.876,23.686,22.458,11.422V4.8h1.648a1.539,1.539,0,0,0,1.648-1.4A1.539,1.539,0,0,0,24.105,2H10.925A1.539,1.539,0,0,0,9.278,3.4a1.539,1.539,0,0,0,1.647,1.4h1.648v6.622L4.154,23.686a3.661,3.661,0,0,0-.015,4.206A5.155,5.155,0,0,0,8.421,30H26.544a5.155,5.155,0,0,0,4.282-2.108,3.661,3.661,0,0,0-.015-4.206Zm-15.239-11.2a1.248,1.248,0,0,0,.231-.686v-7h3.3v7a1.246,1.246,0,0,0,.231.7l1.417,2.1H14.22Zm12.389,14a1.718,1.718,0,0,1-1.417.7H8.487a1.718,1.718,0,0,1-1.417-.7,1.22,1.22,0,0,1,0-1.4L12.293,17.4H22.754l5.272,7.7a1.22,1.22,0,0,1,0,1.4ZM14.22,20.2a1.539,1.539,0,0,0-1.648,1.4A1.539,1.539,0,0,0,14.22,23a1.539,1.539,0,0,0,1.648-1.4A1.539,1.539,0,0,0,14.22,20.2Zm6.59,1.4A1.539,1.539,0,0,0,19.163,23a1.539,1.539,0,0,0,1.648,1.4A1.539,1.539,0,0,0,22.458,23,1.539,1.539,0,0,0,20.81,21.6Z" transform="translate(-3.482 -2)" fill="#94a1b2"/>
</svg>
