<svg xmlns="http://www.w3.org/2000/svg" width="20" height="28" viewBox="0 0 20 28">
  <path id="lightbulb-alt" d="M20.364,3.317A9.87,9.87,0,0,0,12.013,1.2,10.094,10.094,0,0,0,4.175,9.247a10.406,10.406,0,0,0,2.15,8.463A5.835,5.835,0,0,1,7.75,21.363v3.818A3.785,3.785,0,0,0,11.5,29h5a3.785,3.785,0,0,0,3.75-3.818V21.6a6.648,6.648,0,0,1,1.525-4.06A10.308,10.308,0,0,0,20.364,3.291ZM17.751,25.181a1.262,1.262,0,0,1-1.25,1.273h-5a1.262,1.262,0,0,1-1.25-1.273V23.908h7.5Zm2.088-9.214a9.166,9.166,0,0,0-2.088,5.4h-2.5V17.545a1.25,1.25,0,1,0-2.5,0v3.818h-2.5a8.358,8.358,0,0,0-2-5.294A7.744,7.744,0,0,1,6.927,8.661,7.545,7.545,0,0,1,12.488,3.7,7.4,7.4,0,0,1,18.741,5.26a7.69,7.69,0,0,1,2.76,5.922,7.58,7.58,0,0,1-1.663,4.785Z" transform="translate(-4 -0.999)" fill="#94a1b2"/>
</svg>
