<svg xmlns="http://www.w3.org/2000/svg" width="28" height="28" viewBox="0 0 28 28">
  <path id="ruler-combined" d="M28.6,2H3.4A1.4,1.4,0,0,0,2,3.4V28.6A1.4,1.4,0,0,0,3.4,30h8.4a1.4,1.4,0,0,0,1.4-1.4V13.2H28.6A1.4,1.4,0,0,0,30,11.8V3.4A1.4,1.4,0,0,0,28.6,2Zm-1.4,8.4H24.4V9a1.4,1.4,0,1,0-2.8,0v1.4H18.8V9A1.4,1.4,0,1,0,16,9v1.4H13.2V9a1.4,1.4,0,1,0-2.8,0v1.4H9a1.4,1.4,0,1,0,0,2.8h1.4V16H9a1.4,1.4,0,1,0,0,2.8h1.4v2.8H9a1.4,1.4,0,1,0,0,2.8h1.4v2.8H4.8V4.8H27.2Z" transform="translate(-2 -2)" fill="#94a1b2"/>
</svg>
